<mxfile host="Electron" modified="2023-11-28T13:37:27.803Z" agent="Mozilla/5.0 (Macintosh; Intel Mac OS X 10_15_7) AppleWebKit/537.36 (KHTML, like Gecko) draw.io/22.1.2 Chrome/114.0.5735.289 Electron/25.9.4 Safari/537.36" etag="b7nc8HKJ430T2ppMwmlB" version="22.1.2" type="device">
  <diagram name="Page-1" id="lR3VcSXz05wh4oBxWrqb">
    <mxGraphModel dx="2762" dy="1109" grid="0" gridSize="10" guides="1" tooltips="1" connect="1" arrows="1" fold="1" page="1" pageScale="1" pageWidth="850" pageHeight="1100" background="none" math="0" shadow="0">
      <root>
        <mxCell id="0" />
        <mxCell id="1" parent="0" />
        <mxCell id="30_JAnsRdfu_A1RPhJfc-23" style="edgeStyle=orthogonalEdgeStyle;rounded=1;orthogonalLoop=1;jettySize=auto;html=1;exitX=1;exitY=0.5;exitDx=0;exitDy=0;entryX=0;entryY=0.5;entryDx=0;entryDy=0;fontSize=12;startSize=8;endSize=8;" edge="1" parent="1" source="lC5XWeiumiPFc2zz-Pa6-8" target="30_JAnsRdfu_A1RPhJfc-3">
          <mxGeometry relative="1" as="geometry" />
        </mxCell>
        <mxCell id="lC5XWeiumiPFc2zz-Pa6-8" value="&lt;font style=&quot;font-size: 16px;&quot;&gt;&lt;font color=&quot;#0097fc&quot; style=&quot;font-weight: bold; font-size: 16px;&quot;&gt;GET&lt;/font&gt;&lt;font style=&quot;font-weight: bold; font-size: 16px;&quot; color=&quot;#02c937&quot;&gt;&amp;nbsp;&lt;/font&gt;/order/{orderID}&lt;/font&gt;" style="text;html=1;strokeColor=none;fillColor=none;align=center;verticalAlign=middle;whiteSpace=wrap;rounded=0;" parent="1" vertex="1">
          <mxGeometry x="-519" y="133" width="160" height="30" as="geometry" />
        </mxCell>
        <mxCell id="lC5XWeiumiPFc2zz-Pa6-10" value="message 1" style="rounded=1;whiteSpace=wrap;html=1;fillColor=#fff2cc;strokeColor=#d6b656;" parent="1" vertex="1">
          <mxGeometry x="-120" y="190" width="120" height="60" as="geometry" />
        </mxCell>
        <mxCell id="lC5XWeiumiPFc2zz-Pa6-11" value="message 2" style="rounded=1;whiteSpace=wrap;html=1;fillColor=#fff2cc;strokeColor=#d6b656;" parent="1" vertex="1">
          <mxGeometry x="20" y="190" width="120" height="60" as="geometry" />
        </mxCell>
        <mxCell id="lC5XWeiumiPFc2zz-Pa6-12" value="message 3" style="rounded=1;whiteSpace=wrap;html=1;fillColor=#fff2cc;strokeColor=#d6b656;" parent="1" vertex="1">
          <mxGeometry x="160" y="190" width="120" height="60" as="geometry" />
        </mxCell>
        <mxCell id="lC5XWeiumiPFc2zz-Pa6-18" value="&lt;font style=&quot;font-size: 16px;&quot;&gt;Broker&amp;nbsp; - &lt;b&gt;&lt;font color=&quot;#ff0000&quot;&gt;NATS SERVER&lt;/font&gt;&lt;/b&gt;&lt;/font&gt;" style="text;strokeColor=none;fillColor=none;align=center;verticalAlign=middle;spacingLeft=4;spacingRight=4;overflow=hidden;points=[[0,0.5],[1,0.5]];portConstraint=eastwest;rotatable=0;whiteSpace=wrap;html=1;" parent="1" vertex="1">
          <mxGeometry x="110" y="142.5" width="190" height="30" as="geometry" />
        </mxCell>
        <mxCell id="lC5XWeiumiPFc2zz-Pa6-29" style="edgeStyle=orthogonalEdgeStyle;rounded=0;orthogonalLoop=1;jettySize=auto;html=1;jumpSize=25;startSize=9;" parent="1" source="lC5XWeiumiPFc2zz-Pa6-27" target="lC5XWeiumiPFc2zz-Pa6-28" edge="1">
          <mxGeometry relative="1" as="geometry" />
        </mxCell>
        <mxCell id="30_JAnsRdfu_A1RPhJfc-27" value="POST" style="edgeLabel;html=1;align=center;verticalAlign=middle;resizable=0;points=[];fontSize=16;fontStyle=1;fontColor=#4ac936;" vertex="1" connectable="0" parent="lC5XWeiumiPFc2zz-Pa6-29">
          <mxGeometry x="-0.2793" y="-1" relative="1" as="geometry">
            <mxPoint x="11" y="-1" as="offset" />
          </mxGeometry>
        </mxCell>
        <mxCell id="lC5XWeiumiPFc2zz-Pa6-27" value="" style="rounded=1;whiteSpace=wrap;html=1;glass=0;fillColor=none;dashed=1;" parent="1" vertex="1">
          <mxGeometry x="-140" y="172.5" width="440" height="95" as="geometry" />
        </mxCell>
        <mxCell id="lC5XWeiumiPFc2zz-Pa6-28" value="&lt;font style=&quot;font-size: 16px;&quot;&gt;Consumer&lt;br&gt;(PostgreSQL)&lt;/font&gt;" style="ellipse;shape=cloud;whiteSpace=wrap;html=1;fillColor=#d5e8d4;strokeColor=#82b366;" parent="1" vertex="1">
          <mxGeometry x="445" y="170" width="150" height="100" as="geometry" />
        </mxCell>
        <mxCell id="lC5XWeiumiPFc2zz-Pa6-30" value="&lt;font style=&quot;font-size: 16px;&quot;&gt;Producer&lt;/font&gt;" style="shape=umlActor;verticalLabelPosition=bottom;verticalAlign=top;html=1;outlineConnect=0;" parent="1" vertex="1">
          <mxGeometry x="-619" y="70" width="90" height="180" as="geometry" />
        </mxCell>
        <mxCell id="lC5XWeiumiPFc2zz-Pa6-38" value="cache" style="rounded=1;whiteSpace=wrap;html=1;fillColor=#647687;fontColor=#ffffff;strokeColor=#314354;" parent="1" vertex="1">
          <mxGeometry x="-140" y="270" width="440" height="20" as="geometry" />
        </mxCell>
        <mxCell id="lC5XWeiumiPFc2zz-Pa6-39" value="" style="endArrow=classic;html=1;rounded=1;exitX=1;exitY=0.5;exitDx=0;exitDy=0;" parent="1" edge="1">
          <mxGeometry width="50" height="50" relative="1" as="geometry">
            <mxPoint x="299.99999999999955" y="276" as="sourcePoint" />
            <mxPoint x="-576" y="274" as="targetPoint" />
            <Array as="points">
              <mxPoint x="350" y="276" />
              <mxPoint x="350" y="326" />
              <mxPoint x="-578" y="328" />
            </Array>
          </mxGeometry>
        </mxCell>
        <mxCell id="30_JAnsRdfu_A1RPhJfc-29" value="GET" style="edgeLabel;html=1;align=center;verticalAlign=middle;resizable=0;points=[];fontSize=16;fontStyle=1;fontColor=#4e97fc;" vertex="1" connectable="0" parent="lC5XWeiumiPFc2zz-Pa6-39">
          <mxGeometry x="-0.0096" y="2" relative="1" as="geometry">
            <mxPoint as="offset" />
          </mxGeometry>
        </mxCell>
        <mxCell id="30_JAnsRdfu_A1RPhJfc-3" value="&lt;span style=&quot;font-size: 16px;&quot;&gt;&lt;b style=&quot;&quot;&gt;&lt;font color=&quot;#ff0a0a&quot;&gt;NATS CLIENT&lt;/font&gt;&lt;/b&gt;&lt;/span&gt;" style="text;html=1;strokeColor=none;fillColor=none;align=center;verticalAlign=middle;whiteSpace=wrap;rounded=0;" vertex="1" parent="1">
          <mxGeometry x="-299" y="209" width="115" height="30" as="geometry" />
        </mxCell>
        <mxCell id="30_JAnsRdfu_A1RPhJfc-16" value="&lt;font style=&quot;font-size: 16px;&quot;&gt;&lt;font style=&quot;font-weight: bold; font-size: 16px;&quot; color=&quot;#02c937&quot;&gt;POST&amp;nbsp;&lt;/font&gt;/order&amp;nbsp;&lt;/font&gt;" style="text;html=1;strokeColor=none;fillColor=none;align=center;verticalAlign=middle;whiteSpace=wrap;rounded=0;" vertex="1" parent="1">
          <mxGeometry x="-513" y="95" width="100" height="30" as="geometry" />
        </mxCell>
        <mxCell id="30_JAnsRdfu_A1RPhJfc-18" style="edgeStyle=none;curved=1;rounded=0;orthogonalLoop=1;jettySize=auto;html=1;entryX=-0.004;entryY=0.556;entryDx=0;entryDy=0;entryPerimeter=0;fontSize=12;startSize=8;endSize=8;" edge="1" parent="1" source="30_JAnsRdfu_A1RPhJfc-3" target="lC5XWeiumiPFc2zz-Pa6-27">
          <mxGeometry relative="1" as="geometry" />
        </mxCell>
        <mxCell id="30_JAnsRdfu_A1RPhJfc-26" value="" style="endArrow=none;html=1;rounded=1;fontSize=12;startSize=8;endSize=8;exitX=1;exitY=0.5;exitDx=0;exitDy=0;edgeStyle=orthogonalEdgeStyle;endFill=0;" edge="1" parent="1" source="30_JAnsRdfu_A1RPhJfc-16">
          <mxGeometry width="50" height="50" relative="1" as="geometry">
            <mxPoint x="-390" y="230" as="sourcePoint" />
            <mxPoint x="-329" y="156" as="targetPoint" />
          </mxGeometry>
        </mxCell>
      </root>
    </mxGraphModel>
  </diagram>
</mxfile>
